<svg width="164" height="70" viewBox="0 0 164 70" fill="none" xmlns="http://www.w3.org/2000/svg">
<path d="M41.6 1.7L26.6 30.5L18.7 26.2C19.3667 25.9333 20.0667 25.7333 20.8 25.6C21.6 25.4667 22.3333 25.4 23 25.4C25.3333 25.3333 27.6667 25.6 30 26.2C32.3333 26.8 34.4333 27.8667 36.3 29.4C38.2333 30.9333 39.7667 33.0333 40.9 35.7C42.1 38.3667 42.7 41.7667 42.7 45.9C42.7 50.7 41.5667 54.8333 39.3 58.3C37.1 61.7 34.2 64.3 30.6 66.1C27 67.9 23.1 68.8 18.9 68.8C15.6333 68.8 12.2 68.1333 8.6 66.8C5 65.4 2.13333 63.5667 2.83122e-07 61.3L7.4 49.3C8.4 50.5667 9.93333 51.8 12 53C14.0667 54.2 16.2333 54.8 18.5 54.8C19.9667 54.8 21.4 54.4333 22.8 53.7C24.2 52.9667 25.3667 51.8667 26.3 50.4C27.2333 48.9333 27.7 47.1333 27.7 45C27.7 42.0667 26.8667 39.7333 25.2 38C23.6 36.2667 21.3333 35.4 18.4 35.4C16.4 35.4 14.8667 35.5 13.8 35.7C12.8 35.8333 11.8 36.0333 10.8 36.3L10.5 35.9L22.2 14L26.4 15.7H5.5V1.7H41.6ZM56.7344 54.2L74.4344 43.7L56.7344 33.2V18.1L101.234 43.7L56.7344 69.4V54.2ZM135.603 68.1C131.803 68.1 128.203 67.4333 124.803 66.1C121.47 64.7667 118.503 62.7333 115.903 60C113.37 57.2 111.37 53.7 109.903 49.5C108.436 45.2333 107.703 40.2333 107.703 34.5C107.703 28.1 108.403 22.7667 109.803 18.5C111.203 14.1667 113.136 10.7 115.603 8.1C118.136 5.5 121.103 3.66666 124.503 2.6C127.903 1.46666 131.603 0.9 135.603 0.9C139.403 0.9 142.97 1.56667 146.303 2.9C149.703 4.23333 152.67 6.3 155.203 9.1C157.803 11.8333 159.836 15.3333 161.303 19.6C162.77 23.8 163.503 28.7667 163.503 34.5C163.503 40.4333 162.77 45.5333 161.303 49.8C159.836 54.0667 157.803 57.5667 155.203 60.3C152.603 62.9667 149.636 64.9333 146.303 66.2C142.97 67.4667 139.403 68.1 135.603 68.1ZM135.503 54.2C138.836 54.2 141.436 53.3333 143.303 51.6C145.17 49.8 146.47 47.3667 147.203 44.3C148.003 41.2333 148.403 37.8333 148.403 34.1C148.403 30.4333 148.003 27.1667 147.203 24.3C146.47 21.4333 145.17 19.1667 143.303 17.5C141.436 15.7667 138.836 14.9 135.503 14.9C132.236 14.9 129.67 15.7667 127.803 17.5C125.936 19.2333 124.636 21.5667 123.903 24.5C123.17 27.4333 122.803 30.7333 122.803 34.4C122.803 38.0667 123.17 41.4 123.903 44.4C124.636 47.4 125.936 49.8 127.803 51.6C129.67 53.3333 132.236 54.2 135.503 54.2Z" fill="white"/>
</svg>
